<svg width="1519" height="1859" xmlns="http://www.w3.org/2000/svg" xmlns:xlink="http://www.w3.org/1999/xlink" xml:space="preserve" overflow="hidden"><defs><clipPath id="clip0"><rect x="1410" y="282" width="1519" height="1859"/></clipPath></defs><g clip-path="url(#clip0)" transform="translate(-1410 -282)"><path d="M2338.73 1503.91 2412.99 1471.57C2420.46 1468.32 2423.82 1470.07 2428.4 1477.17L2518.91 1617.53C2523.49 1624.64 2512.64 1635.32 2505.18 1638.53L2330.98 1713.4C2323.52 1716.61 2325.94 1706.29 2325.89 1697.68L2325 1524.9C2324.96 1516.27 2331.27 1507.15 2338.73 1503.91Z" fill="#262626" fill-rule="evenodd"/><path d="M2297.54 1408.84 2423.34 1471.26C2425.7 1472.43 2425.91 1475.18 2421.53 1476.82L2340.43 1507.13C2336.05 1508.77 2333.53 1508.06 2326.84 1505.22L2182.73 1444.03C2180.31 1443.02 2184.31 1440.52 2188.79 1439.13L2285.01 1409.09C2289.5 1407.68 2295.18 1407.68 2297.54 1408.84Z" fill="#262626" fill-rule="evenodd"/><path d="M2188.79 1441.75 2324.37 1499.73C2330.33 1502.28 2334.79 1510.62 2334.87 1518.21L2337 1700.03C2337.09 1707.59 2332.85 1716.13 2326.91 1713.52L2192.99 1654.44C2187.06 1651.82 2182.66 1643.56 2182.49 1635.96L2178.01 1450.93C2177.82 1443.32 2182.84 1439.21 2188.79 1441.75Z" fill-rule="evenodd"/><path d="M2240.47 1537.3 2306.95 1512.5C2309.63 1511.5 2309.92 1509.47 2310.7 1510.13 2312.37 1511.5 2312.07 1513.34 2312.13 1515.74L2316 1679.89C2316.11 1685.06 2312.33 1692.37 2307.6 1691.99L2301.09 1691.45C2296.36 1691.06 2299.62 1684.43 2297.37 1679.79L2231.45 1543.33C2229.2 1538.68 2235.93 1538.99 2240.47 1537.3Z" fill="#262626" fill-rule="evenodd"/><path d="M2178.77 1446.93 2310 1510.05C2311.47 1510.76 2311.5 1512.39 2308.89 1513.33L2241.58 1537.68C2238.98 1538.61 2234.53 1541.25 2230.51 1539.3L2099.13 1475.72C2097.68 1475.02 2109.16 1470.94 2111.77 1469.91L2171.13 1446.5C2173.74 1445.48 2177.31 1446.23 2178.77 1446.93Z" fill="#262626" fill-rule="evenodd"/><path d="M2103.07 1475.54 2229.36 1538.37C2232.93 1540.15 2233.74 1545.99 2235.76 1550.01L2304.53 1685.47C2306.56 1689.47 2301.54 1692.15 2297.94 1690.51L2180.56 1636.37C2177.62 1635.02 2104.53 1495.99 2096.49 1480.58 2094.4 1476.57 2099.5 1473.77 2103.07 1475.54Z" fill-rule="evenodd"/><path d="M2231.65 1326.02 2305.53 1295.55C2312.96 1292.48 2315.59 1293.87 2320.17 1300.55L2410.91 1433.09C2415.48 1439.79 2404.67 1449.86 2397.25 1452.89L2223.94 1523.43C2216.51 1526.47 2218.92 1516.75 2218.87 1508.61L2218 1345.8C2217.95 1337.68 2224.23 1329.08 2231.65 1326.02Z" fill="#262626" fill-rule="evenodd"/><path d="M2189.54 1236.79 2315.34 1295.47C2317.7 1296.57 2317.91 1299.14 2313.53 1300.68L2232.43 1329.18C2228.06 1330.72 2225.53 1330.06 2218.84 1327.39L2074.73 1269.88C2072.31 1268.91 2076.31 1266.58 2080.79 1265.26L2177.01 1237.02C2181.5 1235.7 2187.18 1235.7 2189.54 1236.79Z" fill="#262626" fill-rule="evenodd"/><path d="M2081.79 1266.71 2217.37 1321.5C2223.33 1323.92 2227.79 1331.8 2227.87 1338.96L2230 1510.8C2230.09 1517.95 2225.85 1526.02 2219.93 1523.54L2085.99 1467.71C2080.06 1465.23 2075.67 1457.43 2075.49 1450.24L2071.01 1275.39C2070.82 1268.2 2075.84 1264.31 2081.79 1266.71Z" fill-rule="evenodd"/><path d="M2133.35 1357.65 2199.06 1334.35C2201.7 1333.41 2201.99 1331.5 2202.76 1332.12 2204.41 1333.41 2204.12 1335.14 2204.18 1337.4L2208 1491.63C2208.11 1496.49 2204.37 1503.35 2199.7 1502.99L2193.26 1502.49C2188.59 1502.12 2191.82 1495.89 2189.59 1491.53L2124.44 1363.31C2122.22 1358.95 2128.88 1359.25 2133.35 1357.65Z" fill="#262626" fill-rule="evenodd"/><path d="M2145.4 964.607 2278.3 1037.85C2283.93 1040.96 2283.58 1050.24 2288.94 1054.43L2390.36 1133.8C2395.71 1137.98 2365.75 1135.53 2360.39 1132.04L2180.44 1014.83C2175.07 1011.34 2174.69 1003.01 2169.8 998.247L2146.67 975.797C2141.78 971.037 2139.78 961.51 2145.4 964.607Z" fill="#1B1918" fill-rule="evenodd"/><path d="M2224.66 1140.34 2283.09 1061.25C2285.36 1058.17 2284.87 1061.1 2291.38 1066.48L2381.64 1141.1C2388.14 1146.47 2383.59 1150.83 2381.4 1153.98L2321.25 1240.38C2304.62 1264.68 2297.33 1269.93 2270.96 1281.25L2235.4 1296.51C2231.89 1298.02 2217.4 1296.29 2218.02 1287.74L2227.23 1158.31C2227.85 1149.77 2222.39 1143.42 2224.66 1140.34Z" fill="#262626" fill-rule="evenodd"/><path d="M2150.54 986.216 2285.36 1060.32C2287.37 1061.43 2290 1066.48 2288.61 1068.19L2227.34 1143C2225.94 1144.71 2224.16 1144.26 2218.57 1141.36L2071.97 1065.56C2069.95 1064.51 2071.46 1062.95 2073.02 1061.35L2142.06 990.053C2143.6 988.449 2148.54 985.123 2150.54 986.216Z" fill="#262626" fill-rule="evenodd"/><path d="M2075.7 1062.58 2214.72 1136.07C2219.73 1138.71 2230.24 1144.35 2230.02 1151.89L2225.95 1289.16C2225.82 1293.64 2235.86 1294.38 2236 1296.14 2236.13 1297.65 2224.05 1296.99 2221.79 1295.6L2084.64 1213.3C2079.74 1210.35 2069.35 1205.01 2069.34 1197.46L2069 1074.36C2068.99 1066.81 2070.69 1059.93 2075.7 1062.58Z" fill-rule="evenodd"/><path d="M2295.82 880.232 2472.19 814.859C2479.76 812.042 2486.04 816.417 2486 824.131L2485.18 964.895C2485.14 972.621 2484.92 1004.52 2480.3 1011.1L2405.3 1118.06C2390.65 1138.94 2388.65 1136.1 2370.19 1120.8L2289.11 1053.59C2282.92 1048.46 2284.11 1047.22 2283.99 1039.48L2282 899.079C2281.9 891.344 2288.25 883.046 2295.82 880.232Z" fill="#262626" fill-rule="evenodd"/><path d="M2329.57 756.82 2482.33 815.622C2484.75 816.554 2484.86 818.938 2480.5 820.612L2296.86 890.963C2292.5 892.627 2289.58 892.451 2283.15 889.242L2143.68 819.555C2141.36 818.391 2145.37 816.682 2149.8 815.146L2316.92 757.031C2321.36 755.495 2327.15 755.891 2329.57 756.82Z" fill="#262626" fill-rule="evenodd"/><path d="M2150.35 816.92 2281.15 883.634C2286.86 886.552 2291.6 893.403 2291.76 900.194L2295 1041.8C2295.16 1048.58 2289.72 1053.08 2284.1 1050.03L2149.6 977.058C2143.98 974.012 2138.98 967.313 2139 960.498L2139.46 825.155C2139.49 818.328 2144.64 814.014 2150.35 816.92Z" fill-rule="evenodd"/><path d="M2350.12 619.893C2358.11 615.983 2367.02 625.766 2372.45 632.85L2481.65 775.053C2487.1 782.137 2474.85 793.749 2466.58 796.843L2358.17 837.443C2349.88 840.546 2352.67 830.078 2352.59 821.132L2350.99 654.781C2350.8 634.199 2333.7 627.907 2350.12 619.893Z" fill="#262626" fill-rule="evenodd"/><path d="M2206.58 566.673 2351.94 617.763C2362.1 621.343 2362.31 622.836 2362.92 643.195 2364.44 692.663 2364.78 814.234 2365 828.053 2365.13 835.914 2355.79 839.212 2353.09 837.603L2205.59 748.93C2199.52 745.27 2193.96 737.63 2194 729.725L2194.67 576.214C2194.71 568.306 2199.87 564.317 2206.58 566.673Z" fill-rule="evenodd"/><path d="M2260.43 371.106 2381.55 335.497C2387.34 333.79 2392 336.618 2392 341.917L2391.83 457.771C2391.82 463.083 2387.05 468.768 2381.37 470.671L2253.35 513.801C2252.56 514.07 2249.37 514.127 2250.02 513.588 2253.09 511.033 2248.95 508.92 2249 503.609L2249.98 384.006C2250.02 378.683 2254.64 372.798 2260.43 371.106Z" fill="#262626" fill-rule="evenodd"/><path d="M2279.47 293.589 2388.73 336.095C2390.54 336.804 2390.69 338.55 2387.34 339.504L2260.77 375.458C2257.42 376.412 2255.41 376.168 2250.39 374.237L2147.43 334.581C2145.63 333.884 2149.82 329.928 2153.18 328.914L2269.9 293.693C2273.26 292.683 2277.66 292.891 2279.47 293.589Z" fill="#262626" fill-rule="evenodd"/><path d="M2154.26 331.574 2248.96 371.095C2253.39 372.938 2257.05 377.83 2257 382.509L2255.85 507.804C2255.8 512.459 2251.89 515.286 2247.58 513.418L2156.76 474.037C2152.45 472.17 2148.82 467.302 2148.71 462.624L2146 337.2C2145.9 332.521 2149.83 329.73 2154.26 331.574Z" fill-rule="evenodd"/><path d="M2110.1 674.825 2331.97 596.891C2340.2 593.991 2346.99 598.45 2347.07 606.182L2349 828.331C2349.07 836.051 2342.17 844.551 2333.9 847.183L2288.08 861.769C2275.08 865.567 2276.91 868.499 2253.27 855.528L2189.93 823.804 2102.18 851.71C2098.07 853.016 2096.62 839.753 2096.6 837.589L2095 693.676C2094.92 685.933 2101.87 677.713 2110.1 674.825Z" fill="#262626" fill-rule="evenodd"/><path d="M2165.15 527.852 2343.18 596.967C2345.79 597.979 2345.98 600.363 2341.2 601.943L2112.13 678.002C2107.37 679.583 2104.24 679.478 2097.18 676.282L1930.74 600.851C1928.21 599.699 1932.59 597.979 1937.4 596.446L2151.37 528.06C2156.19 526.512 2162.57 526.852 2165.15 527.852Z" fill="#262626" fill-rule="evenodd"/><path d="M1937.94 600.889 2094.46 671.51C2100.76 674.352 2105.9 681.257 2106.04 688.019L2109 839.391C2109.13 846.153 2103.5 854.691 2097.69 851.187L1950.17 762.192C1944.39 758.711 1939.21 752.421 1938.6 745.683L1926.04 609.091C1925.43 602.35 1931.64 598.047 1937.94 600.889Z" fill-rule="evenodd"/><path d="M2070.77 1271.87 2202 1330.96C2203.46 1331.61 2203.5 1333.14 2200.89 1334.02L2133.58 1356.82C2130.98 1357.7 2126.54 1360.17 2122.51 1358.34L1991.13 1298.82C1989.68 1298.17 2001.16 1294.34 2003.77 1293.38L2063.13 1271.47C2065.74 1270.51 2069.31 1271.22 2070.77 1271.87Z" fill="#262626" fill-rule="evenodd"/><path d="M1995.07 1298.51 2121.36 1357.85C2124.93 1359.53 2125.74 1365.05 2127.76 1368.83L2196.53 1496.77C2198.56 1500.55 2193.54 1503.09 2189.94 1501.53L2072.55 1450.4C2069.63 1449.13 1996.54 1317.83 1988.48 1303.27 1986.4 1299.48 1991.5 1296.84 1995.07 1298.51Z" fill-rule="evenodd"/><path d="M1883.82 1128.9 2014.77 1194.62C2020.41 1197.45 2025.19 1203.94 2025.31 1210.42L2028 1355.21C2028.12 1361.69 2022.77 1365.98 2017.17 1363.07L1883.55 1293.45C1877.97 1290.54 1873.01 1284.15 1873.01 1277.65L1873 1136.74C1873 1130.23 1878.19 1126.08 1883.82 1128.9Z" fill-rule="evenodd"/><path d="M2028.7 1198.21 2195.05 1143.74C2202.63 1141.26 2208.73 1145.23 2208.74 1152.59L2209 1284.74C2209.01 1292.09 2202.75 1299.95 2195.3 1302.69L2027.63 1362.2C2020.15 1364.86 2016.53 1360.63 2016.45 1353.25L2015 1216.17C2014.93 1208.79 2021.13 1200.69 2028.7 1198.21Z" fill="#262626" fill-rule="evenodd"/><path d="M2059.96 1069.89 2205.37 1143.56C2207.65 1144.72 2207.96 1146.97 2203.55 1148.31L2030.33 1201.09C2025.92 1202.44 2023.08 1202.58 2016.74 1199.46L1877.67 1130.94C1875.38 1129.81 1879.37 1128.24 1883.73 1126.73L2047.44 1070.1C2051.81 1068.59 2057.69 1068.74 2059.96 1069.89Z" fill="#262626" fill-rule="evenodd"/><path d="M2120.21 668.211 2332.79 600.274C2336.48 599.088 2339.15 601.967 2341.95 604.763 2344.76 607.562 2341.43 612.529 2337.75 613.7L2125.17 681.637C2121.48 682.823 2116 681.046 2116 677.148 2116 673.247 2116.52 669.394 2120.21 668.211Z" fill="#FFFFFF" fill-rule="evenodd"/><path d="M2311.22 879.412 2473.76 819.022C2477.41 817.674 2480.19 817.302 2482.96 820.158 2485.77 822.979 2482.38 827.826 2478.74 829.171L2316.2 889.576C2312.56 890.922 2307 888.968 2307 885.033 2307 881.1 2307.57 880.771 2311.22 879.412Z" fill="#FFFFFF" fill-rule="evenodd"/><path d="M2047.17 1192.53 2193.84 1146.92C2197.53 1145.78 2200.17 1145.25 2202.96 1148.06L2202.96 1148.07C2205.75 1150.87 2202.45 1155.92 2198.78 1157.06L2052.11 1202.65C2048.45 1203.8 2043 1202.06 2043 1198.13 2043 1194.21 2043.5 1193.68 2047.17 1192.53Z" fill="#FFFFFF" fill-rule="evenodd"/><path d="M2261.76 1091.23 2280.85 1066.63C2283.24 1063.55 2285.75 1064.03 2289.72 1064.03 2293.68 1064.03 2291.77 1070.96 2289.39 1074.03L2270.3 1098.64C2267.92 1101.71 2260.11 1102.05 2260.11 1098.1 2260.11 1094.14 2259.37 1094.32 2261.76 1091.23Z" fill="#FFFFFF" fill-rule="evenodd"/><path d="M2155.6 1344.24 2191.77 1331.62C2195.42 1330.35 2198.79 1330.92 2200.56 1334.36 2202.34 1337.81 2198.39 1340.88 2194.76 1342.15L2158.59 1354.76C2154.96 1356.03 2148.25 1351.95 2150.43 1348.81 2152.62 1345.65 2151.96 1345.51 2155.6 1344.24Z" fill="#FFFFFF" fill-rule="evenodd"/><path d="M2250.56 1314.94 2305.84 1295.62C2309.47 1294.35 2312.8 1294.9 2314.57 1298.45 2316.32 1301.99 2312.41 1305.2 2308.81 1306.47L2253.52 1325.77C2249.9 1327.04 2243.25 1322.87 2245.43 1319.64 2247.6 1316.39 2246.93 1316.2 2250.56 1314.94Z" fill="#FFFFFF" fill-rule="evenodd"/><path d="M2261.61 1523.79 2297.77 1510.65C2301.42 1509.32 2304.78 1509.92 2306.56 1513.5 2308.33 1517.09 2304.39 1520.29 2300.75 1521.61L2264.59 1534.75C2260.96 1536.07 2254.25 1531.82 2256.43 1528.55 2258.62 1525.26 2257.96 1525.11 2261.61 1523.79Z" fill="#FFFFFF" fill-rule="evenodd"/><path d="M2360.63 1491.93 2416.71 1472.62C2420.4 1471.36 2423.78 1471.89 2425.56 1475.44 2427.34 1478.99 2423.39 1482.2 2419.72 1483.46L2363.63 1502.77C2359.98 1504.04 2353.24 1499.88 2355.43 1496.63 2357.63 1493.4 2356.95 1493.2 2360.63 1491.93Z" fill="#FFFFFF" fill-rule="evenodd"/><path d="M2254.82 1969.85 2359.75 1927.58C2365.15 1925.41 2369.87 1929.6 2369.87 1935.79L2370 2082.45C2370 2088.64 2365.32 2094.79 2359.88 2096.81L2243.05 2140.48 2239.8 2140.97C2237.26 2141.34 2241.57 2138.66 2241.68 2132.45L2244.7 1984.21C2244.81 1978 2249.4 1972.02 2254.82 1969.85Z" fill="#262626" fill-rule="evenodd"/><path d="M2255.82 1879.01 2367.77 1927.99C2369.58 1928.78 2369.6 1930.75 2366.43 1931.9L2255.68 1972.49C2252.51 1973.66 2250.48 1972.77 2245.59 1970.35L2134.91 1915.61C2133.14 1914.75 2133.99 1913.12 2137.24 1912.12L2246.51 1878.48C2249.76 1877.49 2254.01 1878.22 2255.82 1879.01Z" fill="#262626" fill-rule="evenodd"/><path d="M2139.32 1913.74 2244.15 1965.56C2248.52 1967.73 2252.21 1974 2251.99 1979.48L2245.68 2137.17C2245.46 2142.62 2235.88 2141.36 2231.68 2138.89L2136.84 2083.07C2132.65 2080.59 2128.92 2074.64 2129 2069.16L2131.27 1919.77C2131.35 1914.29 2134.95 1911.58 2139.32 1913.74Z" fill-rule="evenodd"/><path d="M2278.22 1959.22 2356.79 1932.3C2360.46 1931.04 2363.2 1933.95 2365.97 1936.78 2368.75 1939.61 2365.43 1944.43 2361.76 1945.69L2283.19 1972.61C2279.52 1973.87 2274 1972.02 2274 1968.13 2274 1964.24 2274.55 1960.48 2278.22 1959.22Z" fill="#FFFFFF" fill-rule="evenodd"/><path d="M1844.89 1749.99 1992.78 1692.36C1996.45 1690.93 1996.87 1688.29 1997.99 1689.18 2000.33 1691.04 1999.99 1693.45 1999.98 1696.7L1999.35 1867.04C1999.31 1874.01 1993.85 1880.72 1987.68 1883.23L1841.38 1942.78C1835.21 1945.29 1834.96 1925.76 1835 1918.77L1836 1762.19C1836.05 1755.2 1838.66 1752.42 1844.89 1749.99Z" fill="#262626" fill-rule="evenodd"/><path d="M1810.3 1583.09 1996.65 1688.62C1998.62 1689.73 1998.7 1691.6 1995.11 1693.03L1847 1751.96C1843.42 1753.4 1840.4 1753.72 1835.08 1750.46L1635.14 1628.09C1633.23 1626.92 1651.33 1617.94 1655.1 1617.04L1799.63 1582.51C1803.41 1581.6 1808.34 1581.98 1810.3 1583.09Z" fill="#262626" fill-rule="evenodd"/><path d="M1856.02 1741.8 1991.24 1688.36C1994.73 1686.99 1997.37 1689.78 2000.02 1692.41 2002.67 1695.06 1999.47 1699.73 1995.99 1701.1L1860.78 1754.52C1857.29 1755.9 1852 1754.22 1852 1750.49 1852 1746.75 1852.53 1743.17 1856.02 1741.8Z" fill="#FFFFFF" fill-rule="evenodd"/><path d="M1833.14 1514.41 1990.59 1450.34C1994.25 1448.86 1994.7 1446.31 1995.8 1447.18 1998.13 1449.02 1997.79 1451.45 1997.79 1454.68L1998 1646.23C1998 1653.15 1992.51 1660.01 1986.34 1662.38L1839.76 1718.53C1822.51 1725.14 1823.92 1707.71 1823.88 1700.73L1823 1524.07C1822.97 1517.09 1826.94 1516.92 1833.14 1514.41Z" fill="#262626" fill-rule="evenodd"/><path d="M1803.47 1351.13 1994.64 1446.21C1996.65 1447.21 1996.66 1449.11 1993.09 1450.58L1832.91 1516.7C1829.35 1518.17 1827.82 1513.88 1822.47 1510.69L1637.14 1400.14C1635.22 1399 1653.37 1390.25 1657.11 1389.18L1792.8 1350.54C1796.53 1349.49 1801.46 1350.13 1803.47 1351.13Z" fill="#262626" fill-rule="evenodd"/><path d="M1644.24 1398.01 1829.33 1508.14C1834.11 1510.98 1832.52 1517.37 1832.72 1523.5L1839 1713.24C1839.19 1719.35 1833.19 1724.98 1821.36 1717.21L1647.2 1602.7C1642.58 1599.67 1638.32 1593.22 1638.21 1587.06L1635 1404.78C1634.89 1398.61 1639.46 1395.17 1644.24 1398.01Z" fill-rule="evenodd"/><path d="M1856.19 1499.1 1984.38 1451.04C1987.99 1449.67 1991.27 1449.31 1994.05 1452.11 1996.84 1454.91 1992.93 1463.13 1989.31 1464.49L1861.13 1512.56C1857.5 1513.92 1852 1512.04 1852 1508.12 1852 1504.2 1852.57 1500.47 1856.19 1499.1Z" fill="#FFFFFF" fill-rule="evenodd"/><path d="M1640.46 1629.03 1835.27 1749.37C1843.71 1754.58 1842.36 1748.78 1842.49 1764.18L1844 1935.89C1844.02 1938.71 1843.15 1942.03 1841.09 1942.8 1838.69 1943.68 1834.99 1941.48 1832.49 1939.86L1638.96 1814.24C1634.34 1811.22 1629.95 1804.78 1630 1798.62L1631.25 1635.79C1631.3 1629.64 1635.75 1626.13 1640.46 1629.03Z" fill-rule="evenodd"/><path d="M1683.7 1785.34 1795.69 1744.47C1799.54 1743.06 1799.92 1740.27 1801.09 1741.18 1803.55 1743.11 1803.25 1745.62 1803.27 1748.98L1805 1940.05C1805.06 1947.23 1799.39 1954.19 1793.03 1956.82L1667.7 2008.47C1661.34 2011.09 1668.32 2003.56 1668.21 1996.3L1665 1795.23C1664.88 1787.97 1677.16 1787.72 1683.7 1785.34Z" fill="#262626" fill-rule="evenodd"/><path d="M1616.28 1637.23 1799.59 1740.61C1801.63 1741.76 1801.73 1743.79 1798.04 1745.19L1671.82 1793.21C1668.09 1794.63 1665.16 1794.33 1659.75 1790.71L1486.55 1675.04C1484.63 1673.67 1488.03 1672.45 1491.87 1671.27L1605.18 1636.61C1609.03 1635.45 1614.27 1636.1 1616.28 1637.23Z" fill="#262626" fill-rule="evenodd"/><path d="M1492.51 1674.19 1659.64 1789.07C1664.43 1792.36 1666.99 1792.37 1667.04 1794.35L1671.99 1994.22C1672.15 2000.55 1671.07 2015.7 1657.45 2005.65L1495.12 1885.92C1490.48 1882.49 1485.65 1876.1 1485.57 1869.7L1483 1681.21C1482.92 1674.82 1487.73 1670.9 1492.51 1674.19Z" fill-rule="evenodd"/><path d="M1699.08 1777.23 1790.73 1742.36C1794.38 1740.98 1797.15 1743.83 1799.95 1746.58 1802.74 1749.34 1799.48 1754.29 1795.86 1755.66L1704.21 1790.53C1700.59 1791.91 1695.05 1790.21 1695 1786.31 1694.95 1782.4 1695.45 1778.61 1699.08 1777.23Z" fill="#FFFFFF" fill-rule="evenodd"/><path d="M1833.67 1239.15 1981.41 1184.35C1985.11 1182.97 1985.53 1180.3 1986.64 1181.17 1988.96 1183.01 1988.55 1185.48 1988.63 1188.7L1994 1408.65C1994.16 1415.59 1988.5 1422.48 1982.32 1424.85L1829.01 1483.67C1822.82 1486.04 1823.87 1475.05 1823.85 1468.05L1823 1252.39C1822.98 1245.39 1827.4 1241.48 1833.67 1239.15Z" fill="#262626" fill-rule="evenodd"/><path d="M1802.03 1096.07 1985.61 1180.37C1987.66 1181.31 1987.67 1183.38 1984.08 1184.74L1834.3 1241.38C1830.7 1242.74 1828.24 1241.83 1822.73 1238.99L1630.17 1139.96C1628.18 1138.94 1644.08 1133.16 1647.85 1132.2L1791.35 1095.48C1795.12 1094.52 1799.98 1095.14 1802.03 1096.07Z" fill="#262626" fill-rule="evenodd"/><path d="M1635.23 1139.88 1821.8 1235.32C1826.75 1237.86 1832.45 1240.36 1832.48 1246.48L1834 1475.71C1834.02 1478.74 1830.8 1482.96 1826.25 1483 1821.64 1483.04 1815.66 1478.87 1813.27 1477.45L1637.57 1373.04C1632.82 1370.23 1628.64 1363.58 1628.56 1357.42L1626 1146.64C1625.92 1140.48 1630.29 1137.35 1635.23 1139.88Z" fill-rule="evenodd"/><path d="M1855.2 1227.34 1976.84 1185.32C1980.52 1184.05 1983.22 1186.78 1985.98 1189.52 1988.73 1192.26 1985.43 1197.29 1981.78 1198.55L1860.15 1240.57C1856.5 1241.83 1851 1240.26 1851 1236.38 1851 1232.49 1851.51 1228.62 1855.2 1227.34Z" fill="#FFFFFF" fill-rule="evenodd"/><path d="M1804.18 832.118 1987.63 916.758C1989.67 917.7 1989.64 919.658 1986.09 921.148L1840.06 982.761C1836.51 984.263 1830.46 978.291 1824.86 975.615L1630.16 882.779C1628.13 881.811 1646.38 872.814 1650.13 871.765L1793.51 831.522C1797.26 830.475 1802.14 831.173 1804.18 832.118Z" fill="#262626" fill-rule="evenodd"/><path d="M1833.43 975.349 1983.73 920.334C1987.44 918.973 1987.86 916.299 1988.97 917.172 1991.29 919.021 1991.01 921.462 1990.96 924.684L1987.89 1134.79C1987.78 1141.71 1982.33 1148.45 1976.19 1150.94L1831.35 1209.64C1825.2 1212.14 1826.21 1201.04 1826.17 1194.06L1825 988.2C1824.95 981.221 1827.14 977.651 1833.43 975.349Z" fill="#262626" fill-rule="evenodd"/><path d="M1638.19 880.833 1824.98 971.457C1829.96 973.875 1835.62 972.481 1835.63 978.622L1836 1201.34C1836.01 1207.46 1831.68 1210.69 1826.8 1208.1L1640.51 1108.83C1635.63 1106.24 1631.63 1099.37 1631.54 1093.22L1629 887.594C1628.92 881.438 1633.21 878.415 1638.19 880.833Z" fill-rule="evenodd"/><path d="M1855.22 964.164 1977.77 920.339C1981.46 919.014 1984.19 921.812 1986.98 924.586 1989.75 927.358 1986.4 932.322 1982.75 933.727L1860.2 977.549C1856.52 978.873 1851 977.234 1851 973.301 1851 969.37 1851.52 965.485 1855.22 964.164Z" fill="#FFFFFF" fill-rule="evenodd"/><path d="M1821.79 397.849 1962.11 349.741C1969.07 347.353 1974.85 350.975 1974.91 357.171L1976 486.301C1976.06 492.484 1970.1 498.971 1963.21 501.395L1810.82 555.001C1813.05 554.219 1809.08 548.885 1809.08 542.69L1809 412.944C1808.99 406.748 1814.83 400.237 1821.79 397.849Z" fill="#262626" fill-rule="evenodd"/><path d="M1850.36 299.72 1971.47 349.802C1973.64 350.706 1973.85 352.489 1969.77 353.776L1822.38 400.231C1818.31 401.506 1815.66 401.296 1809.65 398.852L1687.93 349.57C1685.75 348.69 1687.57 346.489 1691.66 345.226L1838.62 299.895C1842.71 298.632 1848.18 298.83 1850.36 299.72Z" fill="#262626" fill-rule="evenodd"/><path d="M1846.18 390.134 1959.82 351.313C1963.51 350.055 1966.15 352.817 1968.95 355.558 1971.75 358.296 1968.45 363.489 1964.76 364.747L1851.14 403.568C1847.44 404.838 1842 403.273 1842 399.326 1842 395.388 1842.49 391.404 1846.18 390.134Z" fill="#FFFFFF" fill-rule="evenodd"/><path d="M2285.17 368.249 2377.91 337.305C2381.58 336.079 2384.24 338.763 2386.98 341.518 2389.72 344.285 2386.47 349.431 2382.81 350.648L2290.08 381.592C2286.43 382.805 2281 381.29 2281 377.378 2281 373.458 2281.48 369.477 2285.17 368.249Z" fill="#FFFFFF" fill-rule="evenodd"/><path d="M1876.06 753.303 2063.89 681.966C2072.03 678.876 2078.8 683.527 2078.95 691.258L2082 841.564C2082.16 849.307 2075.12 857.561 2066.94 860.453L1868.16 930.463C1859.98 933.343 1862.67 924.072 1862.59 916.319L1861 772.184C1860.92 764.429 1867.92 756.396 1876.06 753.303Z" fill="#262626" fill-rule="evenodd"/><path d="M1915.71 611.892 2075.21 682.606C2077.78 683.7 2077.97 685.894 2073.2 687.576L1877.08 756.851C1872.31 758.534 1868.93 758.685 1862.09 755.133L1708.72 675.582C1706.25 674.304 1710.57 672.714 1715.4 671.182L1901.89 612.103C1906.72 610.569 1913.17 610.765 1915.71 611.892Z" fill="#262626" fill-rule="evenodd"/><path d="M1716.05 673.051 1860.41 749.669C1866.48 752.887 1871.89 759.418 1872.03 766.202L1875 917.806C1875.13 924.578 1869.22 929.075 1863.06 926.03L1715.61 853.138C1709.46 850.096 1703.99 843.403 1704 836.596L1704.12 681.262C1704.12 674.455 1709.98 669.821 1716.05 673.051Z" fill-rule="evenodd"/><path d="M1502.59 1094.02 1602.57 1055.47C1607.17 1053.7 1611.29 1057.14 1611.15 1062.28L1612 1179.85C1611.87 1184.98 1607.93 1189.93 1603.41 1191.75L1499.89 1233.6C1495.37 1235.42 1495.39 1230.75 1495.34 1225.61L1494 1105.92C1493.94 1100.78 1497.99 1095.8 1502.59 1094.02Z" fill="#262626" fill-rule="evenodd"/><path d="M1524.48 1019.82 1608.96 1055.55C1610.49 1056.19 1610.51 1057.82 1607.82 1058.76L1503.08 1095.56C1500.39 1096.52 1498.62 1095.91 1494.53 1093.81L1412.36 1051.79C1410.89 1051.03 1414.25 1049.26 1417.01 1048.45L1516.6 1019.39C1519.36 1018.58 1522.96 1019.18 1524.48 1019.82Z" fill="#262626" fill-rule="evenodd"/><path d="M1419.77 1050.81 1493.22 1090.8C1496.83 1092.78 1499.79 1097.8 1499.86 1102.33L1502 1231.15C1502.07 1235.67 1491.6 1233.96 1488.1 1231.83L1419.28 1189.82C1415.78 1187.68 1412.73 1182.84 1412.63 1178.29L1410 1055.1C1409.91 1050.55 1416.15 1048.83 1419.77 1050.81Z" fill-rule="evenodd"/><path d="M1515.23 1084.07 1600.04 1055.69C1603.76 1054.44 1607.31 1054.78 1610.09 1057.57 1612.87 1060.37 1608.74 1067.96 1605.03 1069.2L1520.22 1097.58C1516.51 1098.83 1511 1097.26 1511 1093.29 1511 1089.32 1511.49 1085.32 1515.23 1084.07Z" fill="#FFFFFF" fill-rule="evenodd"/><path d="M1643.59 739.219 1769.32 695.582C1775.9 693.304 1781.44 697.966 1781.47 705.225L1782 867.682C1782.02 874.938 1776.32 882.069 1769.85 884.558L1637.95 935.335C1631.48 937.824 1628.9 933.042 1629 925.751L1631.45 756.092C1631.55 748.8 1637 741.509 1643.59 739.219Z" fill="#262626" fill-rule="evenodd"/><path d="M1643.19 633.251 1778.52 696.436C1780.66 697.435 1780.77 699.804 1776.91 701.011L1644.49 742.458C1640.64 743.666 1638.22 742.866 1632.4 739.949L1507.31 677.416C1505.2 676.357 1505.47 674.93 1509.32 673.652L1632.04 632.636C1635.89 631.349 1641.05 632.255 1643.19 633.251Z" fill="#262626" fill-rule="evenodd"/><path d="M1512.76 674.903 1630.62 734.258C1635.81 736.866 1640.04 744.169 1640 750.571L1638.66 927.099C1638.61 933.492 1634.27 936.6 1629.03 934.18L1510.39 879.377C1505.13 876.953 1500.93 869.49 1501 863.052L1503.13 681.97C1503.2 675.544 1507.57 672.295 1512.76 674.903Z" fill-rule="evenodd"/><path d="M1684.32 727.412 1768.73 700.793C1772.38 699.637 1772.15 699.449 1774.95 702.274L1774.96 702.274C1777.76 705.096 1774.4 709.949 1770.79 711.197L1689.09 739.623C1685.48 740.883 1680 738.9 1680 734.994 1680 731.073 1680.68 728.553 1684.32 727.412Z" fill="#FFFFFF" fill-rule="evenodd"/><path d="M1905.2 737.962 2063.81 682.305C2067.47 681.022 2070.15 684.028 2072.96 686.868 2075.76 689.711 2072.42 694.672 2068.77 695.946L1910.15 751.6C1906.5 752.885 1901 750.999 1901 747.04 1901 743.077 1901.54 739.247 1905.2 737.962Z" fill="#FFFFFF" fill-rule="evenodd"/><path d="M1694.13 347.69 1808.12 394.827C1813.47 397.038 1818.05 402.636 1818 408.083L1816.71 547.54C1816.66 552.963 1811.65 556.803 1806.57 554.128L1695.97 495.911C1690.89 493.232 1686.19 488.101 1686.1 482.642L1684 354.29C1683.91 348.828 1688.78 345.477 1694.13 347.69Z" fill-rule="evenodd"/><path d="M1635.36 472.233 1783.21 418.759C1790.26 416.208 1796.18 420.293 1796 427.978L1791.54 612.477C1791.36 620.147 1785.77 628.643 1778.76 631.206L1627.26 686.474C1620.26 689.034 1619.9 681.828 1620.02 674.134L1622.59 490.962C1622.69 483.268 1628.32 474.784 1635.36 472.233Z" fill="#262626" fill-rule="evenodd"/><path d="M1671.88 366.757 1793.45 418.813C1795.68 419.763 1795.82 422.225 1791.75 423.726L1646.24 477.607C1642.18 479.123 1629.47 475.944 1623.31 473.399L1501.67 423.045C1499.43 422.119 1503.21 418.375 1507.36 417.023L1660.1 366.968C1664.25 365.615 1669.65 365.81 1671.88 366.757Z" fill="#262626" fill-rule="evenodd"/><path d="M1508.31 420.685 1621.17 468.476C1626.64 470.782 1631.04 478.184 1631 484.965L1629.59 678.179C1629.54 684.936 1624.99 688.539 1619.51 686.371L1505.82 641.529C1500.33 639.361 1495.93 631.834 1496 625.038L1498.22 428.877C1498.31 422.096 1502.85 418.378 1508.31 420.685Z" fill-rule="evenodd"/><path d="M1667.22 462.138 1781.73 423.317C1785.46 422.047 1788.12 424.822 1790.94 427.548 1793.77 430.289 1790.44 435.482 1786.72 436.752L1672.21 475.573C1668.48 476.831 1663 475.281 1663 471.33 1663 467.383 1663.49 463.396 1667.22 462.138Z" fill="#FFFFFF" fill-rule="evenodd"/><path d="M2620.09 570.361 2718.91 536.371C2723.36 534.842 2727.13 538.178 2727 543.777L2723.73 677.798C2723.59 683.385 2720.1 689.276 2715.64 690.769L2617 723.779C2612.54 725.272 2614.08 718.903 2614 713.292L2612 583.329C2611.92 577.718 2615.64 571.887 2620.09 570.361Z" fill="#262626" fill-rule="evenodd"/><path d="M2645.29 500.784 2724.99 537.003C2726.46 537.664 2726.51 539.694 2723.92 540.505L2620.73 572.654C2618.13 573.464 2616.62 572.862 2612.7 570.743L2534.43 528.481C2533.01 527.716 2535.38 526.267 2538.01 525.596L2637.89 500.321C2640.52 499.659 2643.83 500.125 2645.29 500.784Z" fill="#262626" fill-rule="evenodd"/><path d="M2538.22 526.618 2615.77 566.593C2619.28 568.496 2622.08 574.191 2622 579.127L2619.65 717.898C2619.56 722.813 2616.75 725.287 2613.26 723.327L2536.23 680.236C2532.72 678.288 2529.93 672.638 2530 667.702L2531.83 532.044C2531.9 527.109 2534.69 524.799 2538.22 526.618Z" fill-rule="evenodd"/><path d="M2644.2 560.153 2718.21 537.261C2721.91 536.118 2721.22 538.926 2723.97 541.77 2726.73 544.625 2723.45 549.57 2719.78 550.745L2649.15 573.637C2645.49 574.825 2640 573.043 2640 569.126 2640 565.211 2640.5 561.293 2644.2 560.153Z" fill="#FFFFFF" fill-rule="evenodd"/><path d="M2827.68 348.176 2919.82 317.657C2924.21 316.198 2929.19 316.562 2928.99 325.148L2926.18 443.934C2926.08 448.747 2922.51 453.794 2918.13 455.158L2822.67 484.815C2818.27 486.178 2817.94 479.746 2818.01 474.898L2819.63 359.4C2819.69 354.552 2823.29 349.632 2827.68 348.176Z" fill="#262626" fill-rule="evenodd"/><path d="M2850.43 282.753 2926.02 317.046C2927.44 317.697 2927.51 319.306 2924.95 320.084L2827.93 349.656C2825.37 350.434 2823.76 349.899 2819.89 347.999L2743.42 310.572C2742.01 309.889 2744.4 308.775 2747 308.077L2843.02 282.346C2845.63 281.651 2849.01 282.114 2850.43 282.753Z" fill="#262626" fill-rule="evenodd"/><path d="M2747.75 309.586 2818.81 344.952C2822.25 346.665 2825.04 351.524 2825 355.799L2824.11 479.666C2824.09 483.932 2821.13 486.19 2817.76 484.361L2746.19 445.489C2742.82 443.67 2739.96 438.918 2740 434.64L2741.4 314.293C2741.46 310.018 2744.31 307.885 2747.75 309.586Z" fill-rule="evenodd"/><path d="M2847.2 340.153 2921.21 317.261C2924.91 316.118 2924.21 318.929 2926.98 321.773 2929.73 324.628 2926.44 329.57 2922.78 330.745L2852.16 353.637C2848.48 354.828 2843 353.031 2843 349.128 2843 345.211 2843.5 341.296 2847.2 340.153Z" fill="#FFFFFF" fill-rule="evenodd"/><path d="M2701.18 1792.22 2833.34 1740.65C2839.57 1738.22 2845.04 1742.92 2845 1749.89L2843.73 1914.97C2843.67 1921.94 2838.25 1928.64 2832.07 1931.15L2691.7 1989.59C2685.55 1992.16 2685.91 1982.18 2686.06 1975.2L2689.53 1808.39C2689.67 1801.4 2694.95 1794.66 2701.18 1792.22Z" fill="#262626" fill-rule="evenodd"/><path d="M2711.55 1684.19 2841.6 1741.07C2843.66 1741.97 2843.68 1744.19 2840.05 1745.49L2702.02 1795.42C2698.39 1796.75 2696.06 1795.74 2690.47 1793L2563.7 1731.14C2561.69 1730.15 2564.31 1726.97 2568.01 1725.8L2700.89 1683.6C2704.6 1682.43 2709.53 1683.17 2711.55 1684.19Z" fill="#262626" fill-rule="evenodd"/><path d="M2568.84 1729.83 2689.01 1787.95C2694.02 1790.37 2698.08 1797.4 2698 1803.55L2695.6 1982.27C2695.5 1988.39 2691.16 1991.79 2686.36 1989.03L2566 1919.73C2561.19 1916.96 2556.91 1910.27 2557 1904.12L2559.6 1736.59C2559.69 1730.44 2563.82 1727.42 2568.84 1729.83Z" fill-rule="evenodd"/><path d="M2725.17 1779.29 2829.85 1743.3C2833.5 1742.04 2836.18 1744.98 2838.97 1747.75 2841.76 1750.53 2838.39 1755.37 2834.78 1756.62L2730.11 1792.61C2726.51 1793.86 2721 1792.02 2721 1788.16 2721 1784.29 2721.53 1780.55 2725.17 1779.29Z" fill="#FFFFFF" fill-rule="evenodd"/></g></svg>